<svg width="52" height="52" viewBox="0 0 52 52" fill="none" xmlns="http://www.w3.org/2000/svg">
<circle cx="26" cy="26" r="26" fill="#8DDFCB"/>
<path d="M16 18.6081C16 18.4468 16.0658 18.2922 16.1831 18.1781C16.3003 18.0641 16.4592 18 16.625 18H22.8725C24.1775 18 25.3267 18.6487 25.9983 19.633C26.3401 19.1305 26.8047 18.7184 27.3503 18.4334C27.896 18.1484 28.5057 17.9995 29.125 18H35.375C35.5408 18 35.6997 18.0641 35.8169 18.1781C35.9342 18.2922 36 18.4468 36 18.6081V30.8215C35.9998 30.9016 35.9833 30.9809 35.9516 31.0549C35.9198 31.1288 35.8734 31.1959 35.815 31.2524C35.7565 31.3089 35.6872 31.3536 35.611 31.384C35.5348 31.4144 35.4532 31.4299 35.3708 31.4296L28.9692 31.3874C28.638 31.3851 28.3097 31.4469 28.0033 31.5691C27.6968 31.6913 27.4184 31.8715 27.1842 32.0993L26.4425 32.8218C26.3845 32.8783 26.3155 32.9231 26.2397 32.9537C26.1638 32.9843 26.0825 33 26.0004 33C25.9183 33 25.837 32.9843 25.7611 32.9537C25.6853 32.9231 25.6164 32.8783 25.5583 32.8218L24.8067 32.0912C24.5747 31.8652 24.2992 31.6859 23.9959 31.5636C23.6926 31.4413 23.3675 31.3784 23.0392 31.3785H16.625C16.4592 31.3785 16.3003 31.3144 16.1831 31.2004C16.0658 31.0863 16 30.9317 16 30.7704V18.6081ZM26.625 30.9585C27.2943 30.4434 28.1241 30.1657 28.9775 30.1712L34.75 30.2093V19.2162H29.125C28.462 19.2162 27.8261 19.4725 27.3572 19.9287C26.8884 20.3849 26.625 21.0036 26.625 21.6487V30.9585ZM25.3725 21.6462C25.3718 21.0015 25.1082 20.3835 24.6394 19.9278C24.1706 19.4722 23.5351 19.2162 22.8725 19.2162H17.25V30.1623H23.0392C23.8875 30.1623 24.7108 30.4428 25.375 30.9569L25.3725 21.6462Z" fill="white"/>
</svg>
