<svg width="52" height="52" viewBox="0 0 52 52" fill="none" xmlns="http://www.w3.org/2000/svg">
<circle cx="26" cy="26" r="26" fill="#8DDFCB"/>
<path d="M26 36C24.6333 36 23.3417 35.7373 22.125 35.212C20.9083 34.6867 19.8457 33.97 18.937 33.062C18.029 32.154 17.3123 31.0917 16.787 29.875C16.2617 28.6583 15.9993 27.3667 16 26C16 24.6167 16.2627 23.3207 16.788 22.112C17.3133 20.9033 18.03 19.8453 18.938 18.938C19.846 18.0293 20.908 17.3127 22.124 16.788C23.34 16.2633 24.632 16.0007 26 16C27.3833 16 28.6793 16.2627 29.888 16.788C31.0967 17.3133 32.1547 18.03 33.062 18.938C33.9707 19.846 34.6873 20.9043 35.212 22.113C35.7367 23.3217 35.9993 24.6173 36 26C36 27.3667 35.7373 28.6583 35.212 29.875C34.6867 31.0917 33.97 32.1543 33.062 33.063C32.154 33.971 31.0957 34.6877 29.887 35.213C28.6783 35.7383 27.3827 36.0007 26 36ZM26 33.95C26.4333 33.35 26.8083 32.725 27.125 32.075C27.4417 31.425 27.7 30.7333 27.9 30H24.1C24.3 30.7333 24.5583 31.425 24.875 32.075C25.1917 32.725 25.5667 33.35 26 33.95ZM23.4 33.55C23.1 33 22.8373 32.429 22.612 31.837C22.3867 31.245 22.1993 30.6327 22.05 30H19.1C19.5833 30.8333 20.1877 31.5583 20.913 32.175C21.6383 32.7917 22.4673 33.25 23.4 33.55ZM28.6 33.55C29.5333 33.25 30.3627 32.7917 31.088 32.175C31.8133 31.5583 32.4173 30.8333 32.9 30H29.95C29.8 30.6333 29.6127 31.246 29.388 31.838C29.1633 32.43 28.9007 33.0007 28.6 33.55ZM18.25 28H21.65C21.6 27.6667 21.5623 27.3373 21.537 27.012C21.5117 26.6867 21.4993 26.3493 21.5 26C21.5 25.65 21.5127 25.3127 21.538 24.988C21.5633 24.6633 21.6007 24.334 21.65 24H18.25C18.1667 24.3333 18.104 24.6627 18.062 24.988C18.02 25.3133 17.9993 25.6507 18 26C18 26.35 18.021 26.6873 18.063 27.012C18.105 27.3367 18.1673 27.666 18.25 28ZM23.65 28H28.35C28.4 27.6667 28.4377 27.3373 28.463 27.012C28.4883 26.6867 28.5007 26.3493 28.5 26C28.5 25.65 28.4873 25.3127 28.462 24.988C28.4367 24.6633 28.3993 24.334 28.35 24H23.65C23.6 24.3333 23.5623 24.6627 23.537 24.988C23.5117 25.3133 23.4993 25.6507 23.5 26C23.5 26.35 23.5127 26.6873 23.538 27.012C23.5633 27.3367 23.6007 27.666 23.65 28ZM30.35 28H33.75C33.8333 27.6667 33.896 27.3373 33.938 27.012C33.98 26.6867 34.0007 26.3493 34 26C34 25.65 33.979 25.3127 33.937 24.988C33.895 24.6633 33.8327 24.334 33.75 24H30.35C30.4 24.3333 30.4377 24.6627 30.463 24.988C30.4883 25.3133 30.5007 25.6507 30.5 26C30.5 26.35 30.4873 26.6873 30.462 27.012C30.4367 27.3367 30.3993 27.666 30.35 28ZM29.95 22H32.9C32.4167 21.1667 31.8127 20.4417 31.088 19.825C30.3633 19.2083 29.534 18.75 28.6 18.45C28.9 19 29.1627 19.571 29.388 20.163C29.6133 20.755 29.8007 21.3673 29.95 22ZM24.1 22H27.9C27.7 21.2667 27.4417 20.575 27.125 19.925C26.8083 19.275 26.4333 18.65 26 18.05C25.5667 18.65 25.1917 19.275 24.875 19.925C24.5583 20.575 24.3 21.2667 24.1 22ZM19.1 22H22.05C22.2 21.3667 22.3877 20.754 22.613 20.162C22.8383 19.57 23.1007 18.9993 23.4 18.45C22.4667 18.75 21.6373 19.2083 20.912 19.825C20.1867 20.4417 19.5827 21.1667 19.1 22Z" fill="white"/>
</svg>
