<svg width="35" height="35" viewBox="0 0 35 35" fill="none" xmlns="http://www.w3.org/2000/svg">
<path d="M14.5834 21.875L22.1521 17.5L14.5834 13.125V21.875ZM31.4417 10.4562C31.6313 11.1416 31.7625 12.0604 31.85 13.227C31.9521 14.3937 31.9959 15.4 31.9959 16.275L32.0834 17.5C32.0834 20.6937 31.85 23.0416 31.4417 24.5437C31.0771 25.8562 30.2313 26.702 28.9188 27.0666C28.2334 27.2562 26.9792 27.3875 25.0542 27.475C23.1584 27.577 21.4229 27.6208 19.8188 27.6208L17.5 27.7083C11.3896 27.7083 7.58335 27.475 6.08127 27.0666C4.76877 26.702 3.92294 25.8562 3.55835 24.5437C3.36877 23.8583 3.23752 22.9395 3.15002 21.7729C3.04794 20.6062 3.00419 19.6 3.00419 18.725L2.91669 17.5C2.91669 14.3062 3.15002 11.9583 3.55835 10.4562C3.92294 9.14371 4.76877 8.29788 6.08127 7.93329C6.76669 7.74371 8.02085 7.61246 9.94585 7.52496C11.8417 7.42288 13.5771 7.37913 15.1813 7.37913L17.5 7.29163C23.6104 7.29163 27.4167 7.52496 28.9188 7.93329C30.2313 8.29788 31.0771 9.14371 31.4417 10.4562Z" fill="white"/>
</svg>
