<svg width="52" height="52" viewBox="0 0 52 52" fill="none" xmlns="http://www.w3.org/2000/svg">
<circle cx="26" cy="26" r="26" fill="#8DDFCB"/>
<path d="M19 17V19M15 16V20M33 17V19M37 16V20M19 24V25C19 26.8565 19.7375 28.637 21.0503 29.9497C22.363 31.2625 24.1435 32 26 32M26 32C27.8565 32 29.637 31.2625 30.9497 29.9497C32.2625 28.637 33 26.8565 33 25V24M26 32V36M26 36H23M26 36H29" stroke="white" stroke-width="1.5" stroke-linecap="round" stroke-linejoin="round"/>
<path d="M29 19C29 17.3431 27.6569 16 26 16C24.3431 16 23 17.3431 23 19V25C23 26.6569 24.3431 28 26 28C27.6569 28 29 26.6569 29 25V19Z" stroke="white" stroke-width="1.5"/>
</svg>
