<svg width="35" height="35" viewBox="0 0 35 35" fill="none" xmlns="http://www.w3.org/2000/svg">
<path d="M18.9992 2.91818C20.0634 2.91409 21.1276 2.92479 22.1915 2.95026L22.4744 2.96047C22.8011 2.97213 23.1233 2.98672 23.5127 3.00422C25.0644 3.07713 26.1231 3.32213 27.0521 3.68234C28.0146 4.05276 28.8254 4.55443 29.6363 5.36526C30.3776 6.09385 30.9514 6.97518 31.3177 7.94797C31.6779 8.87693 31.9229 9.93713 31.9958 11.4888C32.0133 11.8767 32.0279 12.2005 32.0396 12.5271L32.0483 12.8101C32.0743 13.8735 32.0854 14.9372 32.0819 16.0009L32.0833 17.0888V18.9992C32.0869 20.0634 32.0758 21.1276 32.0498 22.1915L32.0411 22.4744C32.0294 22.8011 32.0148 23.1234 31.9973 23.5128C31.9244 25.0644 31.6765 26.1232 31.3177 27.0521C30.9526 28.026 30.3787 28.908 29.6363 29.6363C28.907 30.3776 28.0253 30.9514 27.0521 31.3178C26.1231 31.678 25.0644 31.923 23.5127 31.9959C23.1233 32.0134 22.8011 32.028 22.4744 32.0396L22.1915 32.0484C21.1276 32.0743 20.0634 32.0855 18.9992 32.0819L17.9113 32.0834H16.0023C14.9381 32.087 13.8739 32.0758 12.81 32.0498L12.5271 32.0411C12.1809 32.0285 11.8348 32.014 11.4888 31.9973C9.93709 31.9244 8.87834 31.6765 7.94792 31.3178C6.97475 30.9522 6.09327 30.3783 5.36522 29.6363C4.62299 28.9076 4.04867 28.0257 3.6823 27.0521C3.32209 26.1232 3.07709 25.0644 3.00417 23.5128C2.98793 23.1667 2.97335 22.8206 2.96042 22.4744L2.95313 22.1915C2.92625 21.1276 2.91409 20.0634 2.91667 18.9992V16.0009C2.9126 14.9372 2.9233 13.8735 2.94876 12.8101L2.95897 12.5271C2.97063 12.2005 2.98522 11.8767 3.00272 11.4888C3.07563 9.93568 3.32063 8.87838 3.68084 7.94797C4.04743 6.97471 4.62287 6.09362 5.36667 5.36672C6.09423 4.62406 6.97516 4.04922 7.94792 3.68234C8.87834 3.32213 9.93563 3.07713 11.4888 3.00422L12.5271 2.96047L12.81 2.95318C13.8734 2.9263 14.9371 2.91415 16.0008 2.91672L18.9992 2.91818ZM17.5 10.2098C16.5339 10.1962 15.5747 10.3747 14.6781 10.7349C13.7815 11.0952 12.9655 11.6301 12.2775 12.3085C11.5894 12.9868 11.0431 13.7952 10.6702 14.6866C10.2973 15.578 10.1052 16.5345 10.1052 17.5008C10.1052 18.467 10.2973 19.4236 10.6702 20.315C11.0431 21.2064 11.5894 22.0147 12.2775 22.6931C12.9655 23.3715 13.7815 23.9063 14.6781 24.2666C15.5747 24.6269 16.5339 24.8054 17.5 24.7917C19.4339 24.7917 21.2885 24.0235 22.656 22.656C24.0234 21.2886 24.7917 19.4339 24.7917 17.5001C24.7917 15.5662 24.0234 13.7115 22.656 12.3441C21.2885 10.9766 19.4339 10.2098 17.5 10.2098ZM17.5 13.1265C18.0812 13.1158 18.6586 13.221 19.1987 13.436C19.7387 13.651 20.2305 13.9714 20.6453 14.3786C21.0601 14.7857 21.3896 15.2715 21.6146 15.8074C21.8396 16.3434 21.9555 16.9188 21.9556 17.5C21.9557 18.0813 21.84 18.6567 21.6152 19.1928C21.3904 19.7288 21.061 20.2147 20.6464 20.622C20.2317 21.0293 19.74 21.3499 19.2 21.565C18.6601 21.7802 18.0826 21.8856 17.5015 21.8751C16.3411 21.8751 15.2283 21.4141 14.4079 20.5936C13.5874 19.7732 13.1265 18.6604 13.1265 17.5001C13.1265 16.3397 13.5874 15.2269 14.4079 14.4065C15.2283 13.586 16.3411 13.1251 17.5015 13.1251L17.5 13.1265ZM25.1563 8.02234C24.6858 8.04117 24.2409 8.24131 23.9146 8.58084C23.5884 8.92037 23.4062 9.37296 23.4062 9.8438C23.4062 10.3146 23.5884 10.7672 23.9146 11.1068C24.2409 11.4463 24.6858 11.6464 25.1563 11.6653C25.6397 11.6653 26.1034 11.4732 26.4453 11.1313C26.7871 10.7895 26.9792 10.3258 26.9792 9.84234C26.9792 9.35888 26.7871 8.89521 26.4453 8.55335C26.1034 8.21148 25.6397 8.01943 25.1563 8.01943V8.02234Z" fill="white"/>
</svg>
